<svg width="128" height="128" viewBox="0 0 128 128" fill="none" xmlns="http://www.w3.org/2000/svg">
<rect width="128" height="128" rx="64" fill="#4353FF"/>
<path d="M84.3571 55.5017C84.3571 55.5017 78.1786 74.9506 77.7143 76.6012C77.5357 74.9506 73.0357 40 73.0357 40C62.5 40 56.8929 47.4997 53.9286 55.5017C53.9286 55.5017 46.4286 75.0223 45.8214 76.673C45.7857 75.13 44.6786 55.717 44.6786 55.717C44.0357 45.9567 35.1786 40.0359 28 40.0359L36.6429 93C47.6786 92.9641 53.6071 85.4645 56.7143 77.4983C56.7143 77.4983 63.3214 60.2742 63.6071 59.4848C63.6786 60.2383 68.3571 93 68.3571 93C79.3929 93 85.3571 85.9668 88.5714 78.2877L104 40C93.0714 40 87.3214 47.4997 84.3571 55.5017Z" fill="white"/>
</svg>
